<svg xmlns="http://www.w3.org/2000/svg" viewBox="0 0 640 160" width="640" height="160">
  <defs>
    <linearGradient id="i2" x1="0" y1="0" x2="1" y2="1">
      <stop offset="0" stop-color="#44c8ae"/>
      <stop offset="1" stop-color="#2a9c86"/>
    </linearGradient>
  </defs>

  <!-- isometric room mark -->
  <g transform="translate(80 92)">
    <polygon points="0,0 -36,18 0,36 36,18" fill="#35b49c22"/>
    <polygon points="0,0 -36,18 0,36 36,18" fill="none" stroke="#35b49c" stroke-width="3.5" stroke-linejoin="round"/>
    <polygon points="0,0 36,18 36,-20 0,-38" fill="#35b49c14"/>
    <polygon points="0,0 36,18 36,-20 0,-38" fill="none" stroke="#35b49c" stroke-width="3.5" stroke-linejoin="round"/>
    <polygon points="0,0 -36,18 -36,-20 0,-38" fill="#e7c46a14"/>
    <polygon points="0,0 -36,18 -36,-20 0,-38" fill="none" stroke="#e7c46a" stroke-width="3.5" stroke-linejoin="round"/>
    <line x1="0" y1="0" x2="0" y2="-38" stroke="#edece7" stroke-width="4" stroke-linecap="round"/>
    <line x1="-36" y1="18" x2="0" y2="36" stroke="#e7c46a" stroke-width="3.5" stroke-linecap="round"/>
    <line x1="0" y1="36" x2="36" y2="18" stroke="#35b49c" stroke-width="3.5" stroke-linecap="round"/>
  </g>

  <text x="132" y="72" font-family="Arial, Helvetica, sans-serif" font-size="40" font-weight="700" fill="#edece7" letter-spacing="-1">Inerre</text>
  <text x="132" y="108" font-family="Arial, Helvetica, sans-serif" font-size="18" font-weight="500" fill="#888d92" letter-spacing="4">STUDIO</text>
  <rect x="132" y="120" width="56" height="3" rx="1.5" fill="url(#i2)"/>
</svg>